<svg width="281" height="245" viewBox="0 0 281 245" version="1.1" xmlns="http://www.w3.org/2000/svg" xmlns:xlink="http://www.w3.org/1999/xlink">
                                                    <title>Path</title>
                                                    <g id="Page-1" stroke="none" stroke-width="1" fill="none" fill-rule="evenodd">
                                                        <g id="Home-Copy-5" transform="translate(-866.000000, -272.000000)" fill="#000000">
                                                            <g id="Stage-Copy-2" transform="translate(0.000000, -0.000000)">
                                                                <g id="img">
                                                                    <g id="Bitmap" transform="translate(761.000000, -208.000000)">
                                                                        <path d="M105.883814,710.993267 L263.677326,502.931938 L229.839616,502.931938 C214.0833,502.724712 198.340278,503.937759 182.800334,506.556457 C175.852656,507.805573 169.246522,510.513413 163.41487,514.502517 C155.532694,520.7949 148.968208,528.588298 144.098887,537.43457 C143.543031,538.549807 142.639766,540.152959 141.597537,542.383432 L132.286955,540.292364 L147.781431,480.557503 L345.457584,480.557503 L188.35889,691.337221 C195.860756,690.559994 203.398835,690.187712 210.940525,690.221985 C217.332864,690.221985 226.990856,690.221985 239.983981,691.406924 L267.776761,693.010076 C277.921126,693.637397 286.328443,693.985908 292.720782,693.985908 C303.884636,694.407399 315.045185,693.066709 325.794191,690.012878 C333.042246,687.770708 339.907187,684.433121 346.152403,680.115153 C357.8937,671.71406 367.527334,660.689733 374.292594,647.912696 C374.917931,646.727757 375.960161,644.776093 377.141354,642.266811 L385.54867,644.427582 C383.546558,652.603576 380.754051,660.564111 377.210836,668.196062 C370.725614,684.510167 359.971503,698.76602 346.082921,709.459816 C332.835685,719.414651 316.706887,724.750851 300.155351,724.656186 L297.445555,724.656186 C279.223842,724.152812 261.074176,722.14792 243.180151,718.660518 C222.075098,714.808857 200.702192,712.618179 179.256755,712.108503 C168.878178,712.075449 158.514193,712.891346 148.267804,714.548083 C137.373675,715.957238 126.785999,719.160098 116.931444,724.027594" id="z-path"></path>
                                                                    </g>
                                                                </g>
                                                            </g>
                                                        </g>
                                                    </g>
                                                </svg>